<?xml version="1.0" encoding="UTF-8"?>
<svg width="437px" height="152px" viewBox="0 0 437 152" version="1.1" xmlns="http://www.w3.org/2000/svg" xmlns:xlink="http://www.w3.org/1999/xlink">
    <!-- Generator: Sketch 52 (66869) - http://www.bohemiancoding.com/sketch -->
    <title>Group 3</title>
    <desc>Created with Sketch.</desc>
    <g id="Page-1" stroke="none" stroke-width="1" fill="none" fill-rule="evenodd">
        <g id="Group-3">
            <path d="M41.724,68.406 L50.212,68.406 L50.212,59.622 L41.724,59.622 L41.724,68.406 Z M22,26 L22,126.52 C35.214,137.908 45.996,138.672 58.94,136.802 L58.94,101.698 L55.724,101.698 L55.724,37.424 L22,26 Z M41.724,91.28 L50.212,91.28 L50.212,82.496 L41.724,82.496 L41.724,91.28 Z M41.56,130.64 L50.048,130.64 L50.048,121.856 L41.56,121.856 L41.56,130.64 Z M26.508,113.3 L34.996,113.3 L34.996,104.516 L26.508,104.516 L26.508,113.3 Z M26.67,52.75 L35.158,52.75 L35.158,43.966 L26.67,43.966 L26.67,52.75 Z M26.67,91.28 L35.158,91.28 L35.158,82.496 L26.67,82.496 L26.67,91.28 Z" id="Fill-1" fill="#4285F4"></path>
            <path d="M155.618,33.142 L134,33.142 L134,90.246 L147.052,90.246 L147.052,72.3 L155.618,72.3 C166.874,72.3 175.604,63.57 175.604,52.72 C175.604,41.872 166.874,33.142 155.618,33.142 Z M155.618,60.064 L147.052,60.064 L147.052,45.38 L155.618,45.38 C159.614,45.38 162.552,48.56 162.552,52.72 C162.552,56.882 159.614,60.064 155.618,60.064 Z M208.968,91.388 C225.366,91.388 238.662,78.5 238.662,61.694 C238.662,44.89 225.366,32 208.968,32 C192.572,32 179.274,44.89 179.274,61.694 C179.274,78.5 192.572,91.388 208.968,91.388 Z M208.968,78.662 C199.668,78.662 192.326,71.892 192.326,61.694 C192.326,51.498 199.668,44.726 208.968,44.726 C218.268,44.726 225.61,51.498 225.61,61.694 C225.61,71.892 218.268,78.662 208.968,78.662 Z M273.252,91.388 C283.694,91.388 292.83,86.25 297.724,78.174 L286.468,71.646 C284.02,76.052 279.044,78.662 273.252,78.662 C263.136,78.662 256.61,71.892 256.61,61.694 C256.61,51.498 263.136,44.726 273.252,44.726 C279.044,44.726 283.938,47.336 286.468,51.742 L297.724,45.216 C292.748,37.14 283.612,32 273.252,32 C256.038,32 243.558,44.89 243.558,61.694 C243.558,78.5 256.038,91.388 273.252,91.388 Z M350.016,90.246 L329.948,60.96 L349.2,33.142 L334.352,33.142 L316.894,57.942 L316.894,33.142 L303.844,33.142 L303.844,90.246 L316.894,90.246 L316.894,63.816 L335.168,90.246 L350.016,90.246 Z M367.962,77.684 L367.962,67.568 L388.356,67.568 L388.356,55.168 L367.962,55.168 L367.962,45.706 L390.396,45.706 L390.396,33.142 L354.91,33.142 L354.91,90.246 L390.804,90.246 L390.804,77.684 L367.962,77.684 Z M436.486,33.142 L394.066,33.142 L394.066,45.706 L408.752,45.706 L408.752,90.246 L421.804,90.246 L421.804,45.706 L436.486,45.706 L436.486,33.142 Z" id="Fill-4" fill="#434343"></path>
            <path d="M14.868,117.374 L14.868,61.908 L19.242,61.908 L19.242,47.04 L-8.52651283e-14,47.04 L-8.52651283e-14,123.528 L4.346,127.88 C36.12,159.704 71.174,158.1 103.508,128.31 L108.302,123.892 L108.302,47.04 L89.198,47.04 L89.198,61.908 L93.432,61.908 L93.432,117.374 C91,119.616 88.564,121.674 86.124,123.538 L86.124,0 L46.898,11.454 L46.898,29.008 L59.246,32.896 L59.246,135.886 C46.302,137.756 33.232,133.56 20.018,122.172 C18.304,120.696 16.586,119.096 14.868,117.374 Z M54.262,26.466 L62.748,26.466 L62.748,17.682 L54.262,17.682 L54.262,26.466 Z M72.698,51.464 L81.186,51.464 L81.186,42.68 L72.698,42.68 L72.698,51.464 Z M72.47,26.576 L80.958,26.576 L80.958,17.794 L72.47,17.794 L72.47,26.576 Z M72.698,107.614 L81.186,107.614 L81.186,98.83 L72.698,98.83 L72.698,107.614 Z" id="Fill-8" fill="#434343"></path>
            <path d="M155.268,119.706 C158.636,117.898 160.88,114.404 160.88,110.164 C160.88,103.864 155.766,98.686 149.404,98.686 L132,98.686 L132,142.348 L150.838,142.348 C157.45,142.348 162.752,137.046 162.752,130.436 C162.752,125.446 159.634,121.39 155.268,119.706 Z M149.404,101.804 C153.894,101.804 157.574,105.548 157.574,110.164 C157.574,114.78 153.894,118.522 149.404,118.522 L135.306,118.522 L135.306,101.804 L149.404,101.804 Z M150.838,139.23 L135.306,139.23 L135.306,121.64 L150.838,121.64 C155.578,121.64 159.446,125.57 159.446,130.436 C159.446,135.3 155.578,139.23 150.838,139.23 Z M185.894,143.034 C195.498,143.034 201.924,136.984 201.924,127.754 L201.924,98.686 L198.618,98.686 L198.618,127.754 C198.618,134.864 194.19,139.854 185.894,139.854 C177.66,139.854 173.23,134.864 173.23,127.754 L173.23,98.686 L169.926,98.686 L169.926,127.754 C169.926,136.984 176.288,143.034 185.894,143.034 Z M212.152,142.348 L215.458,142.348 L215.458,98.686 L212.152,98.686 L212.152,142.348 Z M229.618,139.23 L229.618,98.686 L226.312,98.686 L226.312,142.348 L250.202,142.348 L250.202,139.23 L229.618,139.23 Z M273.468,98.686 L257.062,98.686 L257.062,142.348 L273.468,142.348 C285.506,142.348 294.052,132.556 294.052,120.518 C294.052,108.48 285.506,98.686 273.468,98.686 Z M273.468,139.23 L260.368,139.23 L260.368,101.804 L273.468,101.804 C283.76,101.804 290.808,110.164 290.808,120.518 C290.808,130.872 283.76,139.23 273.468,139.23 Z M302.41,142.348 L305.716,142.348 L305.716,98.686 L302.41,98.686 L302.41,142.348 Z M345.262,98.686 L345.262,136.236 L319.438,98.686 L316.568,98.686 L316.568,142.348 L319.874,142.348 L319.874,104.798 L345.636,142.348 L348.568,142.348 L348.568,98.686 L345.262,98.686 Z M400.962,122.014 L379.068,122.014 L379.068,125.134 L397.594,125.134 C396.908,133.304 390.484,139.854 379.88,139.854 C368.152,139.854 360.232,131.246 360.232,120.518 C360.232,109.788 368.152,101.182 379.63,101.182 C386.492,101.182 392.604,104.798 395.474,110.288 L398.404,108.542 C394.788,102.242 387.738,98 379.63,98 C366.344,98 356.926,108.042 356.926,120.518 C356.926,132.992 366.344,143.034 379.88,143.034 C392.916,143.034 400.962,134.24 400.962,123.698 L400.962,122.014 Z M421.048,143.034 C429.718,143.034 435.394,138.294 435.394,131.058 C435.394,123.512 428.658,121.078 420.922,118.522 C414.686,116.462 410.256,114.842 410.256,109.602 C410.256,104.736 414.062,101.182 420.112,101.182 C426.35,101.182 429.718,104.798 431.34,108.728 L434.146,107.17 C432.026,102.116 427.284,98 420.112,98 C412.69,98 406.888,102.554 406.888,109.726 C406.888,117.336 413.438,119.394 420.736,121.764 C427.41,123.886 432.026,125.882 432.026,131.122 C432.026,136.112 428.346,139.854 421.048,139.854 C413.874,139.854 409.446,136.298 407.948,131.058 L405.08,132.742 C407.076,138.918 412.876,143.034 421.048,143.034 Z" id="Fill-11" fill="#4285F4"></path>
        </g>
    </g>
</svg>