<?xml version="1.0" encoding="UTF-8"?>
<svg width="707px" height="277px" viewBox="0 0 707 277" version="1.1" xmlns="http://www.w3.org/2000/svg" xmlns:xlink="http://www.w3.org/1999/xlink">
    <!-- Generator: Sketch 52 (66869) - http://www.bohemiancoding.com/sketch -->
    <title>Group 2</title>
    <desc>Created with Sketch.</desc>
    <g id="Page-1" stroke="none" stroke-width="1" fill="none" fill-rule="evenodd">
        <g id="Group-2">
            <path d="M329.724,66.404 L338.212,66.404 L338.212,57.62 L329.724,57.62 L329.724,66.404 Z M310,24 L310,124.52 C323.214,135.906 333.994,136.672 346.94,134.802 L346.94,99.698 L343.724,99.698 L343.724,35.424 L310,24 Z M329.724,89.28 L338.212,89.28 L338.212,80.496 L329.724,80.496 L329.724,89.28 Z M329.56,128.64 L338.048,128.64 L338.048,119.856 L329.56,119.856 L329.56,128.64 Z M314.508,111.3 L322.996,111.3 L322.996,102.516 L314.508,102.516 L314.508,111.3 Z M314.67,50.75 L323.158,50.75 L323.158,41.966 L314.67,41.966 L314.67,50.75 Z M314.67,89.28 L323.158,89.28 L323.158,80.496 L314.67,80.496 L314.67,89.28 Z" id="Fill-14" fill="#4285F4"></path>
            <path d="M21.616,183.142 L-2.84217094e-14,183.142 L-2.84217094e-14,240.246 L13.052,240.246 L13.052,222.3 L21.616,222.3 C32.874,222.3 41.604,213.57 41.604,202.72 C41.604,191.872 32.874,183.142 21.616,183.142 Z M21.616,210.064 L13.052,210.064 L13.052,195.38 L21.616,195.38 C25.614,195.38 28.55,198.56 28.55,202.72 C28.55,206.882 25.614,210.064 21.616,210.064 Z M74.968,241.388 C91.366,241.388 104.662,228.5 104.662,211.694 C104.662,194.89 91.366,182 74.968,182 C58.572,182 45.274,194.89 45.274,211.694 C45.274,228.5 58.572,241.388 74.968,241.388 Z M74.968,228.662 C65.668,228.662 58.326,221.892 58.326,211.694 C58.326,201.498 65.668,194.726 74.968,194.726 C84.268,194.726 91.61,201.498 91.61,211.694 C91.61,221.892 84.268,228.662 74.968,228.662 Z M139.252,241.388 C149.692,241.388 158.83,236.25 163.724,228.174 L152.466,221.646 C150.02,226.052 145.044,228.662 139.252,228.662 C129.136,228.662 122.61,221.892 122.61,211.694 C122.61,201.498 129.136,194.726 139.252,194.726 C145.044,194.726 149.938,197.336 152.466,201.742 L163.724,195.216 C158.748,187.14 149.612,182 139.252,182 C122.038,182 109.558,194.89 109.558,211.694 C109.558,228.5 122.038,241.388 139.252,241.388 Z M216.016,240.246 L195.946,210.96 L215.2,183.142 L200.352,183.142 L182.894,207.942 L182.894,183.142 L169.842,183.142 L169.842,240.246 L182.894,240.246 L182.894,213.816 L201.168,240.246 L216.016,240.246 Z M233.962,227.684 L233.962,217.568 L254.356,217.568 L254.356,205.168 L233.962,205.168 L233.962,195.706 L256.396,195.706 L256.396,183.142 L220.91,183.142 L220.91,240.246 L256.804,240.246 L256.804,227.684 L233.962,227.684 Z M302.486,183.142 L260.066,183.142 L260.066,195.706 L274.75,195.706 L274.75,240.246 L287.804,240.246 L287.804,195.706 L302.486,195.706 L302.486,183.142 Z" id="Fill-15" fill="#434343"></path>
            <path d="M340.428,212.388 C344.834,210.022 347.77,205.454 347.77,199.906 C347.77,191.668 341.08,184.896 332.76,184.896 L310,184.896 L310,242 L334.636,242 C343.284,242 350.218,235.066 350.218,226.42 C350.218,219.894 346.138,214.59 340.428,212.388 Z M332.76,188.976 C338.634,188.976 343.446,193.87 343.446,199.906 C343.446,205.944 338.634,210.838 332.76,210.838 L314.324,210.838 L314.324,188.976 L332.76,188.976 Z M334.636,237.922 L314.324,237.922 L314.324,214.918 L334.636,214.918 C340.836,214.918 345.894,220.056 345.894,226.42 C345.894,232.782 340.836,237.922 334.636,237.922 Z M380.482,242.898 C393.046,242.898 401.448,234.984 401.448,222.912 L401.448,184.896 L397.124,184.896 L397.124,222.912 C397.124,232.212 391.332,238.738 380.482,238.738 C369.714,238.738 363.922,232.212 363.922,222.912 L363.922,184.896 L359.598,184.896 L359.598,222.912 C359.598,234.984 367.92,242.898 380.482,242.898 Z M414.826,242 L419.15,242 L419.15,184.896 L414.826,184.896 L414.826,242 Z M437.668,237.922 L437.668,184.896 L433.344,184.896 L433.344,242 L464.588,242 L464.588,237.922 L437.668,237.922 Z M495.018,184.896 L473.562,184.896 L473.562,242 L495.018,242 C510.762,242 521.938,229.194 521.938,213.448 C521.938,197.704 510.762,184.896 495.018,184.896 Z M495.018,237.922 L477.886,237.922 L477.886,188.976 L495.018,188.976 C508.478,188.976 517.696,199.906 517.696,213.448 C517.696,226.99 508.478,237.922 495.018,237.922 Z M532.868,242 L537.192,242 L537.192,184.896 L532.868,184.896 L532.868,242 Z M588.912,184.896 L588.912,234.006 L555.14,184.896 L551.386,184.896 L551.386,242 L555.71,242 L555.71,192.89 L589.402,242 L593.236,242 L593.236,184.896 L588.912,184.896 Z M661.76,215.406 L633.126,215.406 L633.126,219.486 L657.356,219.486 C656.458,230.172 648.056,238.738 634.188,238.738 C618.85,238.738 608.49,227.48 608.49,213.448 C608.49,199.418 618.85,188.16 633.86,188.16 C642.834,188.16 650.83,192.89 654.582,200.07 L658.416,197.786 C653.684,189.546 644.466,184 633.86,184 C616.486,184 604.166,197.134 604.166,213.448 C604.166,229.764 616.486,242.898 634.188,242.898 C651.236,242.898 661.76,231.396 661.76,217.608 L661.76,215.406 Z M688.028,242.898 C699.368,242.898 706.79,236.698 706.79,227.234 C706.79,217.364 697.98,214.182 687.864,210.838 C679.708,208.146 673.914,206.024 673.914,199.172 C673.914,192.81 678.892,188.16 686.804,188.16 C694.962,188.16 699.368,192.89 701.488,198.03 L705.158,195.99 C702.386,189.384 696.186,184 686.804,184 C677.096,184 669.51,189.954 669.51,199.336 C669.51,209.288 678.076,211.98 687.62,215.08 C696.348,217.854 702.386,220.464 702.386,227.316 C702.386,233.844 697.572,238.738 688.028,238.738 C678.646,238.738 672.854,234.088 670.896,227.234 L667.144,229.438 C669.754,237.514 677.342,242.898 688.028,242.898 Z" id="Fill-16" fill="#4285F4"></path>
            <path d="M302.87,117.374 L302.87,61.908 L307.244,61.908 L307.244,47.038 L288,47.038 L288,123.526 L292.348,127.88 C324.122,159.704 359.174,158.1 391.51,128.31 L396.302,123.892 L396.302,47.038 L377.2,47.038 L377.2,61.908 L381.434,61.908 L381.434,117.374 C379.002,119.614 376.564,121.672 374.126,123.536 L374.126,-2.13162821e-14 L334.898,11.454 L334.898,29.008 L347.248,32.896 L347.248,135.886 C334.302,137.756 321.234,133.56 308.02,122.172 C306.306,120.694 304.588,119.096 302.87,117.374 Z M342.264,26.466 L350.75,26.466 L350.75,17.682 L342.264,17.682 L342.264,26.466 Z M360.7,51.464 L369.188,51.464 L369.188,42.68 L360.7,42.68 L360.7,51.464 Z M360.472,26.576 L368.96,26.576 L368.96,17.794 L360.472,17.794 L360.472,26.576 Z M360.7,107.614 L369.188,107.614 L369.188,98.83 L360.7,98.83 L360.7,107.614 Z" id="Fill-17" fill="#434343"></path>
            <path d="M16.366,258.364 L11.638,258.364 L8.182,265.378 L4.728,258.364 L8.52651283e-14,258.364 L6.104,269.56 L6.104,276.548 L10.26,276.548 L10.26,269.56 L16.366,258.364 Z M33.094,276.91 C38.316,276.91 42.55,272.806 42.55,267.456 C42.55,262.104 38.316,258 33.094,258 C27.872,258 23.638,262.104 23.638,267.456 C23.638,272.806 27.872,276.91 33.094,276.91 Z M33.094,272.858 C30.134,272.858 27.796,270.702 27.796,267.456 C27.796,264.208 30.134,262.052 33.094,262.052 C36.056,262.052 38.394,264.208 38.394,267.456 C38.394,270.702 36.056,272.858 33.094,272.858 Z M58.266,276.91 C62.266,276.91 65.28,274.574 65.28,270.676 L65.28,258.364 L61.124,258.364 L61.124,270.312 C61.124,271.69 60.474,272.858 58.266,272.858 C56.058,272.858 55.41,271.69 55.41,270.312 L55.41,258.364 L51.252,258.364 L51.252,270.676 C51.252,274.574 54.266,276.91 58.266,276.91 Z M84.322,276.548 L88.79,276.548 L84.918,269.872 C86.918,268.858 88.27,266.832 88.27,264.598 C88.27,261.142 85.49,258.364 82.036,258.364 L74.762,258.364 L74.762,276.548 L78.918,276.548 L78.918,270.572 L80.892,270.572 L84.322,276.548 Z M78.918,262.26 L82.036,262.26 C83.178,262.26 84.114,263.272 84.114,264.598 C84.114,265.922 83.178,266.936 82.036,266.936 L78.918,266.936 L78.918,262.26 Z M119.78,276.548 L124.248,276.548 L120.378,269.872 C122.378,268.858 123.728,266.832 123.728,264.598 C123.728,261.142 120.948,258.364 117.494,258.364 L110.22,258.364 L110.22,276.548 L114.378,276.548 L114.378,270.572 L116.352,270.572 L119.78,276.548 Z M114.378,262.26 L117.494,262.26 C118.636,262.26 119.572,263.272 119.572,264.598 C119.572,265.922 118.636,266.936 117.494,266.936 L114.378,266.936 L114.378,262.26 Z M136.848,272.548 L136.848,269.326 L143.342,269.326 L143.342,265.378 L136.848,265.378 L136.848,262.364 L143.99,262.364 L143.99,258.364 L132.69,258.364 L132.69,276.548 L144.12,276.548 L144.12,272.548 L136.848,272.548 Z M164.512,276.548 L169.058,276.548 L162.876,258.364 L157.576,258.364 L151.394,276.548 L155.94,276.548 L156.85,273.69 L163.604,273.69 L164.512,276.548 Z M158.096,269.794 L160.226,263.118 L162.356,269.794 L158.096,269.794 Z M181.268,272.548 L181.268,258.364 L177.112,258.364 L177.112,276.548 L187.762,276.548 L187.762,272.548 L181.268,272.548 Z M213.22,272.548 L213.22,269.326 L219.714,269.326 L219.714,265.378 L213.22,265.378 L213.22,262.364 L220.362,262.364 L220.362,258.364 L209.062,258.364 L209.062,276.548 L220.494,276.548 L220.494,272.548 L213.22,272.548 Z M235.69,276.91 C239.638,276.91 242.444,274.834 242.444,271.326 C242.444,267.482 239.352,266.52 236.598,265.69 C233.768,264.832 233.326,264.26 233.326,263.428 C233.326,262.702 233.974,262.052 235.274,262.052 C236.936,262.052 237.794,262.858 238.418,264.156 L241.924,262.104 C240.6,259.428 238.262,258 235.274,258 C232.13,258 229.168,260.026 229.168,263.534 C229.168,267.014 231.818,268.312 234.52,269.066 C237.248,269.82 238.288,270.26 238.288,271.378 C238.288,272.08 237.794,272.858 235.82,272.858 C233.768,272.858 232.65,271.846 232,270.34 L228.416,272.416 C229.43,275.092 231.87,276.91 235.69,276.91 Z M263.224,258.364 L249.716,258.364 L249.716,262.364 L254.392,262.364 L254.392,276.548 L258.548,276.548 L258.548,262.364 L263.224,262.364 L263.224,258.364 Z M283.098,276.548 L287.644,276.548 L281.46,258.364 L276.162,258.364 L269.978,276.548 L274.524,276.548 L275.434,273.69 L282.188,273.69 L283.098,276.548 Z M276.68,269.794 L278.81,263.118 L280.94,269.794 L276.68,269.794 Z M307.906,258.364 L294.396,258.364 L294.396,262.364 L299.072,262.364 L299.072,276.548 L303.23,276.548 L303.23,262.364 L307.906,262.364 L307.906,258.364 Z M320.374,272.548 L320.374,269.326 L326.868,269.326 L326.868,265.378 L320.374,265.378 L320.374,262.364 L327.518,262.364 L327.518,258.364 L316.218,258.364 L316.218,276.548 L327.648,276.548 L327.648,272.548 L320.374,272.548 Z M332.064,276.91 C333.414,276.91 334.532,275.794 334.532,274.444 C334.532,273.092 333.414,271.976 332.064,271.976 C330.712,271.976 329.596,273.092 329.596,274.444 C329.596,275.794 330.712,276.91 332.064,276.91 Z M361.808,276.548 L366.354,276.548 L360.17,258.364 L354.872,258.364 L348.688,276.548 L353.236,276.548 L354.144,273.69 L360.898,273.69 L361.808,276.548 Z M355.392,269.794 L357.522,263.118 L359.652,269.794 L355.392,269.794 Z M384.536,258.364 L384.536,268.234 L377.524,258.364 L374.406,258.364 L374.406,276.548 L378.562,276.548 L378.562,266.676 L385.576,276.548 L388.694,276.548 L388.694,258.364 L384.536,258.364 Z M413.112,258.364 L408.384,258.364 L404.93,265.378 L401.474,258.364 L396.746,258.364 L402.85,269.56 L402.85,276.548 L407.008,276.548 L407.008,269.56 L413.112,258.364 Z M433.374,258.364 L419.866,258.364 L419.866,262.364 L424.542,262.364 L424.542,276.548 L428.698,276.548 L428.698,262.364 L433.374,262.364 L433.374,258.364 Z M441.686,276.548 L445.842,276.548 L445.842,258.364 L441.686,258.364 L441.686,276.548 Z M473.638,258.364 L469.482,258.364 L464.546,266.442 L459.61,258.364 L455.454,258.364 L455.454,276.548 L459.61,276.548 L459.61,265.974 L464.312,273.69 L464.78,273.69 L469.482,265.974 L469.482,276.548 L473.638,276.548 L473.638,258.364 Z M487.406,272.548 L487.406,269.326 L493.9,269.326 L493.9,265.378 L487.406,265.378 L487.406,262.364 L494.55,262.364 L494.55,258.364 L483.25,258.364 L483.25,276.548 L494.68,276.548 L494.68,272.548 L487.406,272.548 Z M499.096,276.91 C500.446,276.91 501.564,275.794 501.564,274.444 C501.564,273.092 500.446,271.976 499.096,271.976 C497.744,271.976 496.628,273.092 496.628,274.444 C496.628,275.794 497.744,276.91 499.096,276.91 Z M528.84,276.548 L533.386,276.548 L527.202,258.364 L521.904,258.364 L515.72,276.548 L520.268,276.548 L521.176,273.69 L527.93,273.69 L528.84,276.548 Z M522.424,269.794 L524.554,263.118 L526.684,269.794 L522.424,269.794 Z M551.568,258.364 L551.568,268.234 L544.556,258.364 L541.438,258.364 L541.438,276.548 L545.594,276.548 L545.594,266.676 L552.608,276.548 L555.726,276.548 L555.726,258.364 L551.568,258.364 Z M580.144,258.364 L575.416,258.364 L571.962,265.378 L568.506,258.364 L563.778,258.364 L569.884,269.56 L569.884,276.548 L574.04,276.548 L574.04,269.56 L580.144,258.364 Z M591.912,276.548 L596.64,276.548 L599.6,265.818 L602.562,276.548 L607.29,276.548 L612.304,258.364 L607.94,258.364 L604.796,271.092 L601.29,258.364 L597.912,258.364 L594.406,271.092 L591.262,258.364 L586.898,258.364 L591.912,276.548 Z M630.488,258.364 L630.488,265.326 L624.772,265.326 L624.772,258.364 L620.616,258.364 L620.616,276.548 L624.772,276.548 L624.772,269.326 L630.488,269.326 L630.488,276.548 L634.644,276.548 L634.644,258.364 L630.488,258.364 Z M648.412,272.548 L648.412,269.326 L654.906,269.326 L654.906,265.378 L648.412,265.378 L648.412,262.364 L655.556,262.364 L655.556,258.364 L644.256,258.364 L644.256,276.548 L655.686,276.548 L655.686,272.548 L648.412,272.548 Z M674.076,276.548 L678.546,276.548 L674.674,269.872 C676.674,268.858 678.026,266.832 678.026,264.598 C678.026,261.142 675.246,258.364 671.79,258.364 L664.518,258.364 L664.518,276.548 L668.674,276.548 L668.674,270.572 L670.648,270.572 L674.076,276.548 Z M668.674,262.26 L671.79,262.26 C672.934,262.26 673.87,263.272 673.87,264.598 C673.87,265.922 672.934,266.936 671.79,266.936 L668.674,266.936 L668.674,262.26 Z M691.144,272.548 L691.144,269.326 L697.638,269.326 L697.638,265.378 L691.144,265.378 L691.144,262.364 L698.288,262.364 L698.288,258.364 L686.988,258.364 L686.988,276.548 L698.418,276.548 L698.418,272.548 L691.144,272.548 Z M702.834,276.91 C704.184,276.91 705.302,275.794 705.302,274.444 C705.302,273.092 704.184,271.976 702.834,271.976 C701.482,271.976 700.366,273.092 700.366,274.444 C700.366,275.794 701.482,276.91 702.834,276.91 Z" id="Fill-18" fill="#434343"></path>
        </g>
    </g>
</svg>