<?xml version="1.0" encoding="UTF-8"?>
<svg width="845px" height="152px" viewBox="0 0 845 152" version="1.1" xmlns="http://www.w3.org/2000/svg" xmlns:xlink="http://www.w3.org/1999/xlink">
    <!-- Generator: Sketch 52 (66869) - http://www.bohemiancoding.com/sketch -->
    <title>Group</title>
    <desc>Created with Sketch.</desc>
    <g id="Page-1" stroke="none" stroke-width="1" fill="none" fill-rule="evenodd">
        <g id="Group">
            <path d="M41.724,68.404 L50.212,68.404 L50.212,59.62 L41.724,59.62 L41.724,68.404 Z M22,26 L22,126.52 C35.214,137.906 45.996,138.672 58.942,136.802 L58.942,101.698 L55.726,101.698 L55.726,37.424 L22,26 Z M41.724,91.28 L50.212,91.28 L50.212,82.496 L41.724,82.496 L41.724,91.28 Z M41.562,130.64 L50.05,130.64 L50.05,121.856 L41.562,121.856 L41.562,130.64 Z M26.508,113.3 L34.996,113.3 L34.996,104.516 L26.508,104.516 L26.508,113.3 Z M26.672,52.75 L35.16,52.75 L35.16,43.966 L26.672,43.966 L26.672,52.75 Z M26.672,91.28 L35.16,91.28 L35.16,82.496 L26.672,82.496 L26.672,91.28 Z" id="Fill-3" fill="#4285F4"></path>
            <path d="M159.618,47.142 L138,47.142 L138,104.246 L151.052,104.246 L151.052,86.298 L159.618,86.298 C170.876,86.298 179.604,77.57 179.604,66.72 C179.604,55.87 170.876,47.142 159.618,47.142 Z M159.618,74.062 L151.052,74.062 L151.052,59.378 L159.618,59.378 C163.616,59.378 166.552,62.56 166.552,66.72 C166.552,70.88 163.616,74.062 159.618,74.062 Z M212.97,105.388 C229.366,105.388 242.664,92.498 242.664,75.694 C242.664,58.888 229.366,46 212.97,46 C196.572,46 183.276,58.888 183.276,75.694 C183.276,92.498 196.572,105.388 212.97,105.388 Z M212.97,92.662 C203.67,92.662 196.328,85.89 196.328,75.694 C196.328,65.496 203.67,58.726 212.97,58.726 C222.27,58.726 229.61,65.496 229.61,75.694 C229.61,85.89 222.27,92.662 212.97,92.662 Z M277.252,105.388 C287.694,105.388 296.83,100.248 301.726,92.172 L290.468,85.646 C288.02,90.052 283.044,92.662 277.252,92.662 C267.136,92.662 260.61,85.89 260.61,75.694 C260.61,65.496 267.136,58.726 277.252,58.726 C283.044,58.726 287.938,61.336 290.468,65.742 L301.726,59.216 C296.748,51.14 287.612,46 277.252,46 C260.04,46 247.558,58.888 247.558,75.694 C247.558,92.498 260.04,105.388 277.252,105.388 Z M354.016,104.246 L333.948,74.96 L353.2,47.142 L338.354,47.142 L320.896,71.94 L320.896,47.142 L307.844,47.142 L307.844,104.246 L320.896,104.246 L320.896,77.814 L339.168,104.246 L354.016,104.246 Z M371.962,91.682 L371.962,81.568 L392.358,81.568 L392.358,69.168 L371.962,69.168 L371.962,59.704 L394.396,59.704 L394.396,47.142 L358.912,47.142 L358.912,104.246 L394.804,104.246 L394.804,91.682 L371.962,91.682 Z M440.488,47.142 L398.068,47.142 L398.068,59.704 L412.752,59.704 L412.752,104.246 L425.804,104.246 L425.804,59.704 L440.488,59.704 L440.488,47.142 Z" id="Fill-6" fill="#434343"></path>
            <path d="M478.428,74.39 C482.834,72.024 485.77,67.456 485.77,61.908 C485.77,53.668 479.082,46.898 470.76,46.898 L448,46.898 L448,104.002 L472.636,104.002 C481.284,104.002 488.218,97.068 488.218,88.42 C488.218,81.894 484.14,76.592 478.428,74.39 Z M470.76,50.976 C476.634,50.976 481.448,55.872 481.448,61.908 C481.448,67.944 476.634,72.84 470.76,72.84 L452.324,72.84 L452.324,50.976 L470.76,50.976 Z M472.636,99.922 L452.324,99.922 L452.324,76.918 L472.636,76.918 C478.836,76.918 483.894,82.058 483.894,88.42 C483.894,94.784 478.836,99.922 472.636,99.922 Z M518.484,104.9 C531.046,104.9 539.448,96.986 539.448,84.912 L539.448,46.898 L535.126,46.898 L535.126,84.912 C535.126,94.212 529.332,100.738 518.484,100.738 C507.714,100.738 501.924,94.212 501.924,84.912 L501.924,46.898 L497.6,46.898 L497.6,84.912 C497.6,96.986 505.92,104.9 518.484,104.9 Z M552.828,104.002 L557.152,104.002 L557.152,46.898 L552.828,46.898 L552.828,104.002 Z M575.67,99.922 L575.67,46.898 L571.346,46.898 L571.346,104.002 L602.59,104.002 L602.59,99.922 L575.67,99.922 Z M633.018,46.898 L611.564,46.898 L611.564,104.002 L633.018,104.002 C648.762,104.002 659.938,91.194 659.938,75.45 C659.938,59.706 648.762,46.898 633.018,46.898 Z M633.018,99.922 L615.886,99.922 L615.886,50.976 L633.018,50.976 C646.478,50.976 655.696,61.908 655.696,75.45 C655.696,88.992 646.478,99.922 633.018,99.922 Z M670.87,104.002 L675.194,104.002 L675.194,46.898 L670.87,46.898 L670.87,104.002 Z M726.912,46.898 L726.912,96.006 L693.14,46.898 L689.388,46.898 L689.388,104.002 L693.712,104.002 L693.712,54.892 L727.402,104.002 L731.236,104.002 L731.236,46.898 L726.912,46.898 Z M799.762,77.408 L771.128,77.408 L771.128,81.486 L795.356,81.486 C794.458,92.174 786.056,100.738 772.188,100.738 C756.852,100.738 746.492,89.48 746.492,75.45 C746.492,61.418 756.852,50.16 771.862,50.16 C780.836,50.16 788.83,54.892 792.582,62.07 L796.416,59.786 C791.686,51.548 782.466,46 771.862,46 C754.486,46 742.168,59.134 742.168,75.45 C742.168,91.766 754.486,104.9 772.188,104.9 C789.238,104.9 799.762,93.396 799.762,79.61 L799.762,77.408 Z M826.03,104.9 C837.368,104.9 844.792,98.7 844.792,89.236 C844.792,79.366 835.982,76.184 825.866,72.84 C817.708,70.146 811.916,68.026 811.916,61.174 C811.916,54.81 816.892,50.16 824.806,50.16 C832.964,50.16 837.368,54.892 839.49,60.032 L843.16,57.992 C840.386,51.384 834.186,46 824.806,46 C815.098,46 807.51,51.956 807.51,61.336 C807.51,71.29 816.076,73.982 825.62,77.082 C834.35,79.854 840.386,82.466 840.386,89.318 C840.386,95.844 835.574,100.738 826.03,100.738 C816.648,100.738 810.856,96.088 808.898,89.236 L805.146,91.438 C807.756,99.516 815.342,104.9 826.03,104.9 Z" id="Fill-7" fill="#4285F4"></path>
            <path d="M14.868,117.374 L14.868,61.908 L19.244,61.908 L19.244,47.038 L2.84217094e-14,47.038 L2.84217094e-14,123.526 L4.348,127.88 C36.122,159.704 71.174,158.1 103.508,128.31 L108.302,123.892 L108.302,47.038 L89.2,47.038 L89.2,61.908 L93.434,61.908 L93.434,117.374 C91,119.616 88.564,121.672 86.124,123.538 L86.124,-2.84217094e-14 L46.898,11.454 L46.898,29.008 L59.246,32.896 L59.246,135.886 C46.302,137.756 33.234,133.56 20.018,122.172 C18.304,120.694 16.588,119.096 14.868,117.374 Z M54.264,26.466 L62.75,26.466 L62.75,17.682 L54.264,17.682 L54.264,26.466 Z M72.7,51.464 L81.188,51.464 L81.188,42.68 L72.7,42.68 L72.7,51.464 Z M72.472,26.576 L80.96,26.576 L80.96,17.794 L72.472,17.794 L72.472,26.576 Z M72.7,107.614 L81.188,107.614 L81.188,98.83 L72.7,98.83 L72.7,107.614 Z" id="Fill-10" fill="#434343"></path>
            <path d="M154.366,120.364 L149.638,120.364 L146.184,127.378 L142.728,120.364 L138,120.364 L144.106,131.56 L144.106,138.548 L148.262,138.548 L148.262,131.56 L154.366,120.364 Z M171.096,138.912 C176.316,138.912 180.55,134.808 180.55,129.456 C180.55,124.106 176.316,120 171.096,120 C165.874,120 161.64,124.106 161.64,129.456 C161.64,134.808 165.874,138.912 171.096,138.912 Z M171.096,134.86 C168.134,134.86 165.796,132.704 165.796,129.456 C165.796,126.21 168.134,124.054 171.096,124.054 C174.056,124.054 176.394,126.21 176.394,129.456 C176.394,132.704 174.056,134.86 171.096,134.86 Z M196.268,138.912 C200.268,138.912 203.28,136.574 203.28,132.678 L203.28,120.364 L199.124,120.364 L199.124,132.314 C199.124,133.69 198.476,134.86 196.268,134.86 C194.06,134.86 193.41,133.69 193.41,132.314 L193.41,120.364 L189.254,120.364 L189.254,132.678 C189.254,136.574 192.266,138.912 196.268,138.912 Z M222.322,138.548 L226.79,138.548 L222.92,131.872 C224.92,130.86 226.27,128.834 226.27,126.598 C226.27,123.144 223.492,120.364 220.036,120.364 L212.762,120.364 L212.762,138.548 L216.92,138.548 L216.92,132.574 L218.894,132.574 L222.322,138.548 Z M216.92,124.26 L220.036,124.26 C221.18,124.26 222.114,125.274 222.114,126.598 C222.114,127.924 221.18,128.936 220.036,128.936 L216.92,128.936 L216.92,124.26 Z M257.78,138.548 L262.25,138.548 L258.378,131.872 C260.378,130.86 261.73,128.834 261.73,126.598 C261.73,123.144 258.95,120.364 255.496,120.364 L248.222,120.364 L248.222,138.548 L252.378,138.548 L252.378,132.574 L254.352,132.574 L257.78,138.548 Z M252.378,124.26 L255.496,124.26 C256.638,124.26 257.574,125.274 257.574,126.598 C257.574,127.924 256.638,128.936 255.496,128.936 L252.378,128.936 L252.378,124.26 Z M274.848,134.548 L274.848,131.328 L281.342,131.328 L281.342,127.378 L274.848,127.378 L274.848,124.366 L281.992,124.366 L281.992,120.364 L270.692,120.364 L270.692,138.548 L282.122,138.548 L282.122,134.548 L274.848,134.548 Z M302.514,138.548 L307.06,138.548 L300.878,120.364 L295.578,120.364 L289.396,138.548 L293.942,138.548 L294.85,135.692 L301.604,135.692 L302.514,138.548 Z M296.098,131.794 L298.228,125.118 L300.358,131.794 L296.098,131.794 Z M319.268,134.548 L319.268,120.364 L315.112,120.364 L315.112,138.548 L325.764,138.548 L325.764,134.548 L319.268,134.548 Z M351.22,134.548 L351.22,131.328 L357.714,131.328 L357.714,127.378 L351.22,127.378 L351.22,124.366 L358.364,124.366 L358.364,120.364 L347.064,120.364 L347.064,138.548 L358.494,138.548 L358.494,134.548 L351.22,134.548 Z M373.69,138.912 C377.638,138.912 380.444,136.834 380.444,133.328 C380.444,129.482 377.352,128.522 374.6,127.69 C371.768,126.834 371.326,126.262 371.326,125.43 C371.326,124.702 371.976,124.054 373.274,124.054 C374.938,124.054 375.794,124.858 376.418,126.158 L379.924,124.106 C378.6,121.43 376.262,120 373.274,120 C370.132,120 367.17,122.028 367.17,125.534 C367.17,129.016 369.82,130.314 372.522,131.068 C375.25,131.82 376.288,132.262 376.288,133.38 C376.288,134.08 375.794,134.86 373.82,134.86 C371.768,134.86 370.65,133.846 370.002,132.34 L366.416,134.418 C367.43,137.094 369.872,138.912 373.69,138.912 Z M401.226,120.364 L387.718,120.364 L387.718,124.366 L392.394,124.366 L392.394,138.548 L396.55,138.548 L396.55,124.366 L401.226,124.366 L401.226,120.364 Z M421.098,138.548 L425.644,138.548 L419.462,120.364 L414.162,120.364 L407.98,138.548 L412.526,138.548 L413.434,135.692 L420.188,135.692 L421.098,138.548 Z M414.682,131.794 L416.812,125.118 L418.942,131.794 L414.682,131.794 Z M445.906,120.364 L432.398,120.364 L432.398,124.366 L437.074,124.366 L437.074,138.548 L441.23,138.548 L441.23,124.366 L445.906,124.366 L445.906,120.364 Z M458.376,134.548 L458.376,131.328 L464.87,131.328 L464.87,127.378 L458.376,127.378 L458.376,124.366 L465.518,124.366 L465.518,120.364 L454.218,120.364 L454.218,138.548 L465.648,138.548 L465.648,134.548 L458.376,134.548 Z M470.064,138.912 C471.416,138.912 472.532,137.796 472.532,136.444 C472.532,135.094 471.416,133.976 470.064,133.976 C468.714,133.976 467.596,135.094 467.596,136.444 C467.596,137.796 468.714,138.912 470.064,138.912 Z M499.808,138.548 L504.354,138.548 L498.172,120.364 L492.872,120.364 L486.69,138.548 L491.236,138.548 L492.144,135.692 L498.9,135.692 L499.808,138.548 Z M493.392,131.794 L495.522,125.118 L497.652,131.794 L493.392,131.794 Z M522.538,120.364 L522.538,130.236 L515.524,120.364 L512.406,120.364 L512.406,138.548 L516.564,138.548 L516.564,128.678 L523.578,138.548 L526.694,138.548 L526.694,120.364 L522.538,120.364 Z M551.112,120.364 L546.386,120.364 L542.93,127.378 L539.474,120.364 L534.748,120.364 L540.852,131.56 L540.852,138.548 L545.008,138.548 L545.008,131.56 L551.112,120.364 Z M571.374,120.364 L557.866,120.364 L557.866,124.366 L562.542,124.366 L562.542,138.548 L566.698,138.548 L566.698,124.366 L571.374,124.366 L571.374,120.364 Z M579.688,138.548 L583.844,138.548 L583.844,120.364 L579.688,120.364 L579.688,138.548 Z M611.64,120.364 L607.484,120.364 L602.548,128.444 L597.612,120.364 L593.456,120.364 L593.456,138.548 L597.612,138.548 L597.612,127.976 L602.314,135.692 L602.782,135.692 L607.484,127.976 L607.484,138.548 L611.64,138.548 L611.64,120.364 Z M625.408,134.548 L625.408,131.328 L631.902,131.328 L631.902,127.378 L625.408,127.378 L625.408,124.366 L632.55,124.366 L632.55,120.364 L621.25,120.364 L621.25,138.548 L632.68,138.548 L632.68,134.548 L625.408,134.548 Z M637.096,138.912 C638.448,138.912 639.564,137.796 639.564,136.444 C639.564,135.094 638.448,133.976 637.096,133.976 C635.746,133.976 634.628,135.094 634.628,136.444 C634.628,137.796 635.746,138.912 637.096,138.912 Z M666.84,138.548 L671.386,138.548 L665.204,120.364 L659.904,120.364 L653.722,138.548 L658.268,138.548 L659.176,135.692 L665.932,135.692 L666.84,138.548 Z M660.424,131.794 L662.554,125.118 L664.684,131.794 L660.424,131.794 Z M689.57,120.364 L689.57,130.236 L682.556,120.364 L679.438,120.364 L679.438,138.548 L683.596,138.548 L683.596,128.678 L690.61,138.548 L693.726,138.548 L693.726,120.364 L689.57,120.364 Z M718.144,120.364 L713.418,120.364 L709.962,127.378 L706.506,120.364 L701.78,120.364 L707.884,131.56 L707.884,138.548 L712.04,138.548 L712.04,131.56 L718.144,120.364 Z M729.912,138.548 L734.64,138.548 L737.602,127.82 L740.562,138.548 L745.292,138.548 L750.304,120.364 L745.94,120.364 L742.798,133.094 L739.29,120.364 L735.912,120.364 L732.406,133.094 L729.262,120.364 L724.898,120.364 L729.912,138.548 Z M768.488,120.364 L768.488,127.326 L762.774,127.326 L762.774,120.364 L758.616,120.364 L758.616,138.548 L762.774,138.548 L762.774,131.328 L768.488,131.328 L768.488,138.548 L772.644,138.548 L772.644,120.364 L768.488,120.364 Z M786.412,134.548 L786.412,131.328 L792.908,131.328 L792.908,127.378 L786.412,127.378 L786.412,124.366 L793.556,124.366 L793.556,120.364 L782.256,120.364 L782.256,138.548 L793.686,138.548 L793.686,134.548 L786.412,134.548 Z M812.078,138.548 L816.546,138.548 L812.676,131.872 C814.676,130.86 816.026,128.834 816.026,126.598 C816.026,123.144 813.246,120.364 809.792,120.364 L802.518,120.364 L802.518,138.548 L806.674,138.548 L806.674,132.574 L808.648,132.574 L812.078,138.548 Z M806.674,124.26 L809.792,124.26 C810.934,124.26 811.87,125.274 811.87,126.598 C811.87,127.924 810.934,128.936 809.792,128.936 L806.674,128.936 L806.674,124.26 Z M829.146,134.548 L829.146,131.328 L835.64,131.328 L835.64,127.378 L829.146,127.378 L829.146,124.366 L836.288,124.366 L836.288,120.364 L824.988,120.364 L824.988,138.548 L836.418,138.548 L836.418,134.548 L829.146,134.548 Z M840.834,138.912 C842.186,138.912 843.302,137.796 843.302,136.444 C843.302,135.094 842.186,133.976 840.834,133.976 C839.484,133.976 838.366,135.094 838.366,136.444 C838.366,137.796 839.484,138.912 840.834,138.912 Z" id="Fill-13" fill="#434343"></path>
        </g>
    </g>
</svg>